<svg width="34" height="34" viewBox="0 0 34 34" fill="none" xmlns="http://www.w3.org/2000/svg">
<path d="M19.95 27.3125C19.3562 27.9062 19 28.7375 19 29.6875V32.0625C19 32.775 19.475 33.25 20.1875 33.25H32.0625C32.775 33.25 33.25 32.775 33.25 32.0625V29.6875C33.25 28.7375 32.8938 27.9062 32.3 27.3125H19.95Z" fill="white" fill-opacity="0.39"/>
<path d="M13.3 5.9375C13.8938 5.34375 14.25 4.5125 14.25 3.5625V1.1875C14.25 0.475 13.775 0 13.0625 0H1.1875C0.475 0 0 0.475 0 1.1875V3.5625C0 4.5125 0.35625 5.34375 0.95 5.9375H13.3Z" fill="white" fill-opacity="0.39"/>
<path d="M19.8313 21.375H21.1375C21.2563 21.375 21.375 21.4938 21.375 21.6125V24.9375H30.875V20.1875C30.875 15.5563 27.1938 11.875 22.5625 11.875H19.8313C19.475 11.1625 18.6438 10.6875 17.8125 10.6875H15.4375C14.6063 10.6875 13.775 11.1625 13.4188 11.875H12.1125C11.9938 11.875 11.875 11.7563 11.875 11.6375V8.3125H2.375V13.0625C2.375 17.6938 6.05625 21.375 10.6875 21.375H13.4188C13.775 22.0875 14.6063 22.5625 15.4375 22.5625H17.8125C18.6438 22.5625 19.475 22.0875 19.8313 21.375Z" fill="white" fill-opacity="0.39"/>
</svg>
