<svg width="61" height="41" viewBox="0 0 61 41" fill="none" xmlns="http://www.w3.org/2000/svg">
<path d="M24.7873 30.7681C22.6859 34.4189 24.1011 37.4171 27.02 39.1007C29.9358 40.7873 33.245 40.5189 35.3525 36.868C37.454 33.2233 50.7459 0.6798 49.59 0.0118505C48.434 -0.656099 26.8918 27.1203 24.7873 30.7681ZM30.5 7.58805C31.8359 7.58805 33.1352 7.7009 34.4071 7.9205C35.743 6.24605 37.2374 4.4008 38.6923 2.6501C36.0298 1.87948 33.2718 1.48828 30.5 1.48805C13.3987 1.48805 0 15.9115 0 34.3243C0 35.4559 0.0488 36.5875 0.14945 37.6885C0.2989 39.3691 1.79645 40.6012 3.45565 40.4579C5.1362 40.3024 6.3745 38.8261 6.22505 37.1456C6.14175 36.2075 6.10003 35.2662 6.1 34.3243C6.1 19.3305 16.8177 7.58805 30.5 7.58805ZM52.5179 11.4006C51.667 13.6881 50.7673 16.0182 49.9743 18.0312C53.07 22.5147 54.9 28.1389 54.9 34.3243C54.9 35.2882 54.8543 36.2611 54.7689 37.2005C54.7296 37.9874 54.9961 38.7591 55.5126 39.3541C56.0291 39.9491 56.7557 40.3214 57.5403 40.3931C58.325 40.4647 59.107 40.2303 59.7228 39.7388C60.3385 39.2472 60.7405 38.5366 60.8444 37.7556C60.9451 36.6271 61 35.4742 61 34.3243C61 25.3146 57.7883 17.2749 52.5179 11.4006Z" fill="#AAAAAA"/>
</svg>
