<svg width="36" height="34" viewBox="0 0 36 34" fill="none" xmlns="http://www.w3.org/2000/svg">
<path fill-rule="evenodd" clip-rule="evenodd" d="M8.9999 1.41663C8.47914 1.41663 8.04509 1.67129 7.74228 2.05663C7.63602 2.19268 7.3901 2.51107 7.0635 2.95661C6.62913 3.54919 6.04764 4.37277 5.46371 5.29193C4.88258 6.2067 4.28303 7.24109 3.82439 8.25181C3.38522 9.21965 2.9984 10.2707 3 11.3362C3.00093 11.6352 3.03874 11.9357 3.0907 12.2302C3.17737 12.7214 3.35349 13.398 3.72077 14.0918C4.09097 14.7911 4.66985 15.5336 5.56628 16.098C6.47208 16.6683 7.61241 17 8.99991 17C10.3874 17 11.5277 16.6683 12.4336 16.098C13.33 15.5336 13.9089 14.7912 14.2791 14.0919C14.6464 13.3981 14.8226 12.7215 14.9093 12.2303C14.9613 11.9354 14.9996 11.6342 15 11.3347C15.0006 10.2692 14.6148 9.21978 14.1756 8.25179C13.7169 7.24107 13.1174 6.20667 12.5362 5.29192C11.9522 4.37276 11.3707 3.54918 10.9363 2.95658C10.6097 2.51106 10.3638 2.19266 10.2575 2.05661C9.95471 1.67127 9.52065 1.41662 8.9999 1.41663ZM11.4182 9.36792C11.033 8.51927 10.5076 7.60574 9.96372 6.74967C9.63297 6.22906 9.30131 5.73889 8.99994 5.30893C8.69858 5.73889 8.36694 6.22904 8.03621 6.74965C7.49237 7.60572 6.96693 8.51924 6.58184 9.36789L6.56003 9.41593C6.29498 9.9995 5.98164 10.6894 6.00027 11.3339C6.01824 11.8438 6.16335 12.37 6.40409 12.8248C6.59634 13.1879 6.86118 13.508 7.23038 13.7405C7.59018 13.967 8.13735 14.1666 8.99991 14.1666C9.86247 14.1666 10.4097 13.967 10.7695 13.7405C11.1387 13.508 11.4036 13.1879 11.5959 12.8247C11.8366 12.37 11.9818 11.8437 11.9997 11.3338C12.0184 10.6894 11.7051 9.9996 11.44 9.41609L11.4182 9.36792Z" fill="#AAAAAA"/>
<path fill-rule="evenodd" clip-rule="evenodd" d="M26.9999 1.41663C26.4792 1.41663 26.0451 1.67129 25.7423 2.05663C25.6361 2.19268 25.3901 2.51107 25.0635 2.95661C24.6291 3.54919 24.0477 4.37277 23.4638 5.29193C22.8827 6.2067 22.2831 7.24109 21.8244 8.25181C21.3852 9.21965 20.9984 10.2707 21 11.3362C21.0009 11.6352 21.0387 11.9357 21.0908 12.2302C21.1773 12.7214 21.3536 13.398 21.7208 14.0918C22.091 14.7911 22.6698 15.5336 23.5662 16.098C24.4721 16.6683 25.6124 17 26.9999 17C28.3874 17 29.5278 16.6683 30.4335 16.098C31.3301 15.5336 31.9089 14.7912 32.2791 14.0919C32.6465 13.3981 32.8226 12.7215 32.9093 12.2303C32.9613 11.9354 32.9996 11.6342 33 11.3347C33.0006 10.2692 32.6148 9.21978 32.1756 8.25179C31.7169 7.24107 31.1174 6.20667 30.5363 5.29192C29.9523 4.37276 29.3708 3.54918 28.9364 2.95658C28.6098 2.51106 28.3638 2.19266 28.2576 2.05661C27.9548 1.67127 27.5207 1.41662 26.9999 1.41663ZM29.4182 9.36792C29.0331 8.51927 28.5077 7.60574 27.9638 6.74967C27.633 6.22906 27.3014 5.73889 27 5.30893C26.6987 5.73889 26.367 6.22904 26.0363 6.74965C25.4924 7.60572 24.9669 8.51924 24.5819 9.36789L24.5601 9.41592C24.2951 9.9995 23.9817 10.6894 24.0003 11.3339C24.0183 11.8438 24.1634 12.37 24.4041 12.8248C24.5964 13.1879 24.8612 13.508 25.2305 13.7405C25.5902 13.967 26.1374 14.1666 26.9999 14.1666C27.8625 14.1666 28.4097 13.967 28.7696 13.7405C29.1387 13.508 29.4036 13.1879 29.5959 12.8247C29.8367 12.37 29.9817 11.8437 29.9997 11.3338C30.0185 10.6894 29.7051 9.99961 29.4401 9.41612L29.4182 9.36792Z" fill="#AAAAAA"/>
<path fill-rule="evenodd" clip-rule="evenodd" d="M16.7423 17.6401C17.0451 17.2547 17.4792 17 17.9999 17C18.5207 17 18.9548 17.2546 19.2576 17.6401C19.3638 17.7761 19.6098 18.0944 19.9364 18.5399C20.3708 19.1325 20.9523 19.9562 21.5363 20.8753C22.1174 21.79 22.7169 22.8245 23.1756 23.8351C23.6148 24.8031 24.0006 25.8526 24 26.9181C23.9996 27.2176 23.9613 27.5189 23.9093 27.8137C23.8226 28.3049 23.6465 28.9815 23.2791 29.6752C22.9089 30.3746 22.3301 31.1169 21.4335 31.6813C20.5278 32.2517 19.3874 32.5833 17.9999 32.5833C16.6124 32.5833 15.4721 32.2517 14.5663 31.6813C13.6698 31.1169 13.091 30.3745 12.7208 29.6752C12.3535 28.9815 12.1774 28.3049 12.0907 27.8136C12.0387 27.5192 12.0009 27.2186 12 26.9196C11.9984 25.854 12.3852 24.803 12.8244 23.8351C13.283 22.8245 13.8826 21.79 14.4637 20.8753C15.0477 19.9562 15.6291 19.1325 16.0635 18.5399C16.3901 18.0945 16.6361 17.7761 16.7423 17.6401ZM18.9638 22.333C19.5077 23.1891 20.0331 24.1026 20.4182 24.9513C20.4254 24.9673 20.4327 24.9833 20.4401 24.9995C20.7051 25.583 21.0185 26.2728 20.9997 26.9172C20.9817 27.4271 20.8367 27.9534 20.5959 28.4081C20.4036 28.7712 20.1387 29.0914 19.7696 29.3239C19.4097 29.5504 18.8625 29.75 17.9999 29.75C17.1374 29.75 16.5902 29.5504 16.2305 29.3239C15.8612 29.0914 15.5964 28.7714 15.4041 28.4081C15.1634 27.9534 15.0183 27.4271 15.0003 26.9172C14.9816 26.2728 15.2951 25.5829 15.5601 24.9993C15.5673 24.9832 15.5747 24.9672 15.5819 24.9513C15.9669 24.1026 16.4924 23.1891 17.0363 22.333C17.367 21.8124 17.6987 21.3222 18 20.8923C18.3014 21.3222 18.633 21.8124 18.9638 22.333Z" fill="#AAAAAA"/>
</svg>
