<svg width="13" height="34" viewBox="0 0 13 34" fill="none" xmlns="http://www.w3.org/2000/svg">
<path d="M7.68182 23.8157V5.23079C7.68182 4.50894 7.15237 3.9231 6.5 3.9231C5.84705 3.9231 5.31818 4.50894 5.31818 5.23079V23.8157C4.27641 24.3211 3.54546 25.4706 3.54546 26.8077C3.54546 28.6104 4.87087 30.0769 6.5 30.0769C8.12914 30.0769 9.45455 28.6104 9.45455 26.8077C9.45455 25.4706 8.72359 24.3211 7.68182 23.8157ZM6.5 27.4616C6.17382 27.4616 5.90909 27.1686 5.90909 26.8077C5.90909 26.4468 6.17382 26.1539 6.5 26.1539C6.82618 26.1539 7.09091 26.4468 7.09091 26.8077C7.09091 27.1686 6.82618 27.4616 6.5 27.4616Z" fill="#AAAAAA" fill-opacity="1"/>
<path d="M11.2326 21.877L11.2273 5.23077C11.2273 2.34665 9.1065 0 6.5 0C3.8935 0 1.77273 2.34665 1.77273 5.23012L1.76682 21.877C0.638183 23.2063 0 24.9717 0 26.8077C0 30.7733 2.91614 34 6.5 34C10.0839 34 13 30.7733 13 26.8077C13 24.971 12.3618 23.2057 11.2326 21.877ZM6.5 31.3846C4.21968 31.3846 2.36364 29.3309 2.36364 26.8077C2.36364 25.5105 2.86473 24.2675 3.73868 23.3992C3.98804 23.1507 4.13046 22.7977 4.13046 22.4269L4.13636 5.23077C4.13636 3.78838 5.19645 2.61538 6.5 2.61538C7.80354 2.61538 8.86364 3.78838 8.86364 5.23142L8.86895 22.4269C8.86895 22.7977 9.01136 23.1514 9.26132 23.3992C10.1347 24.2675 10.6364 25.5098 10.6364 26.8077C10.6364 29.3309 8.78032 31.3846 6.5 31.3846Z" fill="#AAAAAA" fill-opacity="1"/>
</svg>
