<svg width="40" height="30" viewBox="0 0 40 30" fill="none" xmlns="http://www.w3.org/2000/svg">
<g clip-path="url(#clip0_40_1404)">
<path d="M37.5 1.875H30V3.75H37.5V1.875Z" fill="#AAAAAA"/>
<path d="M35 7.5H30V9.375H35V7.5Z" fill="#AAAAAA"/>
<path d="M37.5 13.125H30V15H37.5V13.125Z" fill="#AAAAAA"/>
<path d="M35 18.75H30V20.625H35V18.75Z" fill="#AAAAAA"/>
<path d="M37.5 26.25H30C27.5028 26.2435 25.0651 25.6781 22.9989 24.6263C20.9327 23.5744 19.3322 22.084 18.4022 20.3458C17.4722 18.6077 17.2552 16.7009 17.7788 14.8696C18.3025 13.0383 19.543 11.366 21.3415 10.0667C19.7083 9.6153 17.9826 9.38122 16.2421 9.375C14.7202 9.36327 13.2212 9.6537 11.8972 10.2168C10.5733 10.7799 9.47147 11.5956 8.70363 12.5812C6.24575 15.4076 5 20.0062 5 26.25H2.5C2.5 19.6367 3.8825 14.6931 6.60887 11.5569C7.60497 10.3104 9.01762 9.28049 10.7071 8.56897C12.3967 7.85745 14.3045 7.48898 16.2421 7.5H16.2506C19.0595 7.52989 21.8221 8.04036 24.328 8.9925C24.5211 9.06805 24.6846 9.18013 24.8021 9.31764C24.9197 9.45515 24.9873 9.61332 24.9983 9.77647C25.0093 9.93961 24.9632 10.1021 24.8647 10.2478C24.7662 10.3935 24.6186 10.5173 24.4366 10.6071C22.6544 11.5052 21.3035 12.8085 20.5825 14.3254C19.8614 15.8422 19.8084 17.4926 20.4312 19.0337C21.0539 20.5749 22.3196 21.9255 24.042 22.8869C25.7645 23.8484 27.8529 24.37 30 24.375H37.5V26.25Z" fill="#AAAAAA"/>
</g>
<defs>
<clipPath id="clip0_40_1404">
<rect width="40" height="30" fill="white"/>
</clipPath>
</defs>
</svg>
