<svg width="25" height="28" viewBox="0 0 25 28" fill="none" xmlns="http://www.w3.org/2000/svg">
<path fill-rule="evenodd" clip-rule="evenodd" d="M19.6429 15H0.892857C0.399107 15 0 15.4789 0 16.0714C0 16.6639 0.399107 17.1429 0.892857 17.1429H18.6009C21.1491 17.1429 23.2143 19.0618 23.2143 21.4286C23.2143 23.7954 21.6884 25.7143 17.8571 25.7143V27.8571H19.6429C22.6009 27.8571 25 24.9782 25 21.4286C25 17.8789 22.6009 15 19.6429 15ZM12.5018 19.2857H5.35714C4.86339 19.2857 4.46429 19.7657 4.46429 20.3571C4.46429 20.9496 4.86339 21.4286 5.35714 21.4286H12.5C13.4857 21.4286 14.2857 22.3886 14.2857 23.5714C14.2857 24.7543 13.4857 25.7143 12.5 25.7143V27.8571C14.4723 27.8571 16.0714 25.9382 16.0714 23.5714C16.0714 21.2057 14.4732 19.2879 12.5018 19.2857ZM8.03571 8.57143H18.75C19.2437 8.57143 19.6429 8.0925 19.6429 7.5C19.6429 6.90857 19.2437 6.42857 18.75 6.42857H8.03571C7.54196 6.42857 7.14286 6.90857 7.14286 7.5C7.14286 8.0925 7.54196 8.57143 8.03571 8.57143ZM3.57143 12.8571H19.6429C22.6009 12.8571 25 9.97821 25 6.42857C25 2.87893 22.6009 0 19.6429 0V2.14286C22.1625 2.71179 23.2143 4.06179 23.2143 6.42857C23.2143 8.79536 21.1491 10.7143 18.6009 10.7143H3.57143C3.07768 10.7143 2.67857 11.1943 2.67857 11.7857C2.67857 12.3782 3.07768 12.8571 3.57143 12.8571Z" fill="#AAAAAA" fill-opacity="1"/>
</svg>
